<?xml version="1.0" encoding="UTF-8" standalone="no"?>
<!-- Uploaded to: SVG Repo, www.svgrepo.com, Generator: SVG Repo Mixer Tools -->

<svg
   width="666.66669"
   height="666.66669"
   viewBox="0 0 20.000001 20.000001"
   fill="none"
   version="1.1"
   id="svg1"
   sodipodi:docname="gallery.svg"
   inkscape:version="1.4.2 (ebf0e940d0, 2025-05-08)"
   xmlns:inkscape="http://www.inkscape.org/namespaces/inkscape"
   xmlns:sodipodi="http://sodipodi.sourceforge.net/DTD/sodipodi-0.dtd"
   xmlns="http://www.w3.org/2000/svg"
   xmlns:svg="http://www.w3.org/2000/svg">
  <defs
     id="defs1" />
  <sodipodi:namedview
     id="namedview1"
     pagecolor="#ffffff"
     bordercolor="#000000"
     borderopacity="0.25"
     inkscape:showpageshadow="2"
     inkscape:pageopacity="0.0"
     inkscape:pagecheckerboard="0"
     inkscape:deskcolor="#d1d1d1"
     inkscape:zoom="1.45625"
     inkscape:cx="333.39056"
     inkscape:cy="333.39056"
     inkscape:window-width="3440"
     inkscape:window-height="1368"
     inkscape:window-x="0"
     inkscape:window-y="0"
     inkscape:window-maximized="1"
     inkscape:current-layer="svg1" />
  <path
     fill-rule="evenodd"
     clip-rule="evenodd"
     d="M 1.46447,1.46447 C 0,2.92893 0,5.28595 0,10 0,14.714 0,17.0711 1.46447,18.5355 2.92893,20 5.28595,20 10,20 c 4.714,0 7.0711,0 8.5355,-1.4645 C 20,17.0711 20,14.714 20,10 20,5.28595 20,2.92893 18.5355,1.46447 17.0711,0 14.714,0 10,0 5.28595,0 2.92893,0 1.46447,1.46447 Z M 14,8 c 1.1046,0 2,-0.89543 2,-2 0,-1.10457 -0.8954,-2 -2,-2 -1.1046,0 -2,0.89543 -2,2 0,1.10457 0.8954,2 2,2 z m -9.67908,3.1038 c 0.62409,-0.5797 1.59899,-0.5472 2.18305,0.0728 l 2.64753,2.8103 c 0.7994,0.8487 2.1081,0.963 3.0426,0.2658 0.6132,-0.4574 1.4669,-0.4054 2.02,0.123 l 2.2678,2.1666 c 0.2995,0.2861 0.7743,0.2753 1.0604,-0.0242 0.2861,-0.2995 0.2753,-0.7743 -0.0242,-1.0604 l -2.2678,-2.1666 c -1.0824,-1.0341 -2.7532,-1.1358 -3.9531,-0.2407 -0.3237,0.2415 -0.777,0.2019 -1.0539,-0.092 L 7.59579,10.1481 C 6.44651,8.9281 4.52816,8.8641 3.3001,10.0047 l -0.8105,0.7528 c -0.3035,0.2819 -0.32102,0.7564 -0.03913,1.0599 0.28189,0.3035 0.75644,0.3211 1.05994,0.0392 z"
     fill="#1C274C"
     id="path1"
     style="fill:#ffffff;fill-opacity:1" />
</svg>
